<svg xmlns="http://www.w3.org/2000/svg" width="32" height="32" viewBox="0 0 410 404" fill="none"><path d="M399.641 59.5246L215.643 388.545C211.844 395.338 202.084 395.378 198.228 388.618L10.5817 59.5563C6.38087 52.1896 12.6802 43.2665 21.0281 44.7586L205.223 77.6824C206.398 77.8924 207.601 77.8904 208.776 77.6763L389.119 44.8058C397.439 43.2894 403.768 52.1434 399.641 59.5246Z" fill="#41D1FF"/><path d="M292.965 1.5744L156.801 28.2552C154.563 28.6937 152.906 30.5903 152.771 32.8664L144.395 174.33C144.198 177.662 147.258 180.248 150.51 179.498L188.42 170.749C191.967 169.931 195.172 173.055 194.443 176.622L183.18 231.775C182.421 235.491 185.907 238.66 189.532 237.554L212.947 230.406C216.577 229.298 220.067 232.475 219.297 236.195L201.398 322.744C200.278 328.161 207.486 331.117 210.492 326.463L212.5 323.352L323.454 102.428C325.312 98.7255 322.114 94.5104 318.035 95.2952L279.014 102.83C275.347 103.538 272.228 100.127 273.239 96.5352L298.716 8.3925C299.729 4.79624 296.605 1.38208 292.965 1.5744Z" fill="url(#paint0_linear)"/><defs><linearGradient id="paint0_linear" x1="6.00017" y1="32.9999" x2="235" y2="344" gradientUnits="userSpaceOnUse"><stop stop-color="#FFEA83"/><stop offset="0.0833333" stop-color="#FFDD35"/><stop offset="1" stop-color="#FFA800"/></linearGradient></defs></svg>
